<svg width="179" height="160" viewBox="0 0 179 160" fill="none" xmlns="http://www.w3.org/2000/svg">
<path d="M27.6771 13.6907C36.3093 19.4603 44.9618 25.2435 46.5 27.5L66.4862 60.0217C69.3123 63.4885 72.2449 63 77.9281 63H103.245C108.245 63 112.616 63.4885 115.442 60.0217L135.428 27.5C136.966 25.2435 145.618 19.4604 154.251 13.6907C162.833 7.95442 171.396 2.23106 172.928 0C165.855 0.975174 131.428 12 124.928 19L99.9398 47.3847C99.7761 47.5855 99.6215 47.7908 99.4759 48H82.452C82.3064 47.7908 82.1518 47.5855 81.9881 47.3847L57 19C50.5 12 16.0726 0.975174 9 0C10.5318 2.23106 19.0948 7.95442 27.6771 13.6907Z" fill="#B1A643"/>
<path fill-rule="evenodd" clip-rule="evenodd" d="M164.65 51.9037C172.013 47.1642 167.954 35.6785 159.426 37.125L114.502 44.7456C107.849 40.7878 100.093 38.5833 91.7019 38.5833C82.4524 38.5833 73.9738 41.2621 66.8945 46.0152L23.7956 40.3144C15.2201 39.1801 11.5505 50.7889 19.0716 55.2588L48.0964 72.5087C46.6865 77.4321 45.9303 82.7488 45.9303 88.3599C45.9303 112.367 58.9373 132.52 79.0132 139.894L80.7618 147.462L86.6966 142.238L90.3708 153.861L95.6585 142.169L101.075 147.306L103.239 139.646C122.946 131.926 137.474 112.585 137.474 88.3599C137.474 82.1976 136.561 76.3904 134.873 71.0692L164.65 51.9037Z" fill="#343333"/>
<path fill-rule="evenodd" clip-rule="evenodd" d="M167.526 42.3612C166.434 39.2716 163.498 36.9415 159.51 37.618L114.404 45.2693L114.246 45.1753C107.671 41.2639 100.003 39.0833 91.7019 39.0833C82.5511 39.0833 74.1697 41.7329 67.1733 46.4304L67.0163 46.5357L23.73 40.8101C19.7184 40.2794 16.8616 42.712 15.8742 45.8357C14.8856 48.9629 15.7915 52.7278 19.327 54.829L48.6833 72.2758L48.5771 72.6463C47.1805 77.5236 46.4303 82.7939 46.4303 88.36C46.4303 112.189 59.3348 132.134 79.1856 139.424L79.4395 139.517L81.0604 146.533L86.9422 141.356L90.4537 152.464L95.4926 141.323L100.819 146.374L102.825 139.271L103.057 139.18C122.576 131.534 136.974 112.375 136.974 88.36C136.974 82.2471 136.069 76.491 134.396 71.2204L134.281 70.8558L164.379 51.4833C167.841 49.2548 168.619 45.4545 167.526 42.3612ZM168.469 42.028C169.696 45.5008 168.822 49.8131 164.92 52.3242L135.464 71.2834C137.095 76.5551 137.974 82.2887 137.974 88.36C137.974 112.7 123.429 132.166 103.653 140.02L101.332 148.238L95.8245 143.016L90.2879 155.258L86.4512 143.12L80.4632 148.391L78.5868 140.269C58.4306 132.737 45.4303 112.443 45.4303 88.36C45.4303 82.8444 46.1552 77.6075 47.5109 72.7423L18.8161 55.6886C14.8306 53.32 13.8108 49.0455 14.9207 45.5343C16.0316 42.0198 19.2974 39.215 23.8612 39.8187L66.7733 45.4949C73.9036 40.7519 82.4221 38.0833 91.7019 38.0833C100.115 38.0833 107.904 40.2769 114.599 44.222L159.343 36.6321C163.882 35.8621 167.24 38.5516 168.469 42.028Z" fill="#FEFCFC"/>
<path fill-rule="evenodd" clip-rule="evenodd" d="M62.9138 82.1522C62.3863 81.7068 62.3196 80.9182 62.765 80.3907C64.3481 78.5154 65.8297 76.9296 67.8256 76.1243C69.865 75.3015 72.225 75.3685 75.4138 76.2199C76.0808 76.398 76.4772 77.0831 76.2991 77.75C76.121 78.417 75.4359 78.8134 74.7689 78.6353C71.8098 77.8452 70.0749 77.9126 68.761 78.4427C67.4037 78.9904 66.2736 80.11 64.6753 82.0034C64.2299 82.5309 63.4413 82.5975 62.9138 82.1522Z" fill="#FEFCFC"/>
<path fill-rule="evenodd" clip-rule="evenodd" d="M119.834 81.8969C120.361 81.4516 120.428 80.6629 119.983 80.1354C118.399 78.2601 116.918 76.6744 114.922 75.8691C112.883 75.0463 110.523 75.1132 107.334 75.9647C106.667 76.1427 106.27 76.8278 106.448 77.4948C106.627 78.1618 107.312 78.5581 107.979 78.38C110.938 77.59 112.673 77.6574 113.987 78.1875C115.344 78.7351 116.474 79.8548 118.072 81.7481C118.518 82.2756 119.306 82.3422 119.834 81.8969Z" fill="#FEFCFC"/>
<path fill-rule="evenodd" clip-rule="evenodd" d="M100.282 109.28C100.824 108.852 100.916 108.066 100.488 107.525C100.06 106.983 99.5 107.001 99.5 107.001H93.7188H89.7188H84.5C84.5 107.001 83.7544 106.961 83.3035 107.483C82.8526 108.006 82.9108 108.796 83.4336 109.246L88.8542 113.922C89.3797 114.375 89.9897 114.679 90.6287 114.834L90.6287 119.789C90.6287 120.48 91.1883 121.039 91.8787 121.039C92.569 121.039 93.1287 120.48 93.1287 119.789V114.681C93.5303 114.53 93.9143 114.315 94.2658 114.037L100.282 109.28Z" fill="#FEFCFC"/>
<path fill-rule="evenodd" clip-rule="evenodd" d="M80 127.25C80 126.56 80.5596 126 81.25 126H101.25C101.94 126 102.5 126.56 102.5 127.25C102.5 127.94 101.94 128.5 101.25 128.5H81.25C80.5596 128.5 80 127.94 80 127.25Z" fill="#FEFCFC"/>
<path fill-rule="evenodd" clip-rule="evenodd" d="M58.7656 81.9539C54.9403 82.3876 52.8565 83.7862 51.7293 84.9857C50.668 86.1151 50.3812 87.1477 50.3541 87.245C50.3518 87.2535 50.3514 87.2549 50.3526 87.2486L50.3382 87.3212L50.3153 87.3916C49.1406 91.0008 49.5455 95.1684 49.6609 96.3554C49.6651 96.3992 49.669 96.4389 49.6723 96.4744C51.124 104.959 53.2547 106.933 53.381 107.05C53.3884 107.057 53.389 107.058 53.3823 107.053L53.5051 107.141L53.6033 107.256C54.9976 108.888 57.3286 109.843 59.5245 110.375C60.5972 110.634 61.585 110.781 62.3221 110.862C62.6898 110.902 62.9924 110.926 63.2088 110.94C63.4161 110.953 63.5304 110.956 63.5455 110.956C63.5468 110.956 63.5474 110.956 63.5471 110.956H63.5712L63.5953 110.957C64.1706 110.979 64.7178 111 65.261 111C68.6588 111 71.3376 110.44 73.1569 109.883C74.0668 109.604 74.7607 109.327 75.2206 109.121C75.4426 109.022 75.6086 108.941 75.7166 108.885L75.7365 108.863L75.9483 108.756C81.3432 106.044 83.0914 100.709 83.3994 99.7696C83.4008 99.7654 83.4022 99.7612 83.4035 99.7572L83.3989 99.7556C84.8746 95.2486 85.0956 92.1515 84.9697 90.2168C84.9067 89.2491 84.7566 88.5666 84.6295 88.1379C84.5659 87.9232 84.5076 87.7706 84.4678 87.676C84.4339 87.5955 84.4126 87.5544 84.4029 87.5357C84.4017 87.5335 84.4007 87.5316 84.3999 87.5299L84.3941 87.5186L84.3885 87.5072C83.5846 85.853 81.8694 84.6726 80.1381 83.8832C79.2946 83.4986 78.4967 83.2293 77.8941 83.054C77.5939 82.9666 77.345 82.9034 77.167 82.8613C76.9994 82.8218 76.9043 82.8032 76.8907 82.8006C76.8893 82.8003 76.8888 82.8002 76.8891 82.8003L76.8339 82.7908L76.7798 82.7764C75.0564 82.3185 72.7386 82.0015 70.8 81.7991C69.148 81.6267 67.8596 81.546 67.5294 81.5253C67.4696 81.5215 67.4412 81.5198 67.4478 81.5198H67.4249L67.402 81.5189C65.6693 81.4555 63.5324 81.5613 61.798 81.6871C60.9363 81.7495 60.1841 81.8161 59.645 81.8671C59.3756 81.8925 59.1596 81.9141 59.0096 81.9293L58.8342 81.9471L58.782 81.9524L58.7656 81.9539ZM67.4935 79.0212L67.4935 79.0206C65.6211 78.952 63.3747 79.0662 61.6173 79.1936C60.7331 79.2577 59.9622 79.3259 59.4098 79.3782C59.1334 79.4043 58.9116 79.4264 58.7577 79.442L58.5813 79.46H58.5717L58.502 79.4678C54.1225 79.9606 51.4727 81.6082 49.9075 83.2737C48.491 84.781 48.0291 86.2316 47.9212 86.6698C46.4434 91.2695 47.1871 96.8735 47.1871 96.6671V96.773L47.205 96.8775C48.6868 105.553 50.9561 108.275 51.7836 108.973C53.7009 111.153 56.6191 112.244 58.9362 112.805C61.2327 113.361 63.1697 113.45 63.5147 113.456C64.0773 113.477 64.6672 113.5 65.261 113.5C68.9356 113.5 71.8615 112.894 73.8887 112.273C74.902 111.963 75.6917 111.649 76.2396 111.404C76.5134 111.282 76.7284 111.177 76.8822 111.097C76.9586 111.057 77.0231 111.022 77.0741 110.993C77.0913 110.983 77.1099 110.972 77.1287 110.961C83.8805 107.532 85.7954 100.504 85.7278 100.655L85.7545 100.596L85.7748 100.534C87.333 95.7744 87.6143 92.3566 87.4644 90.0544C87.3895 88.9038 87.2072 88.0373 87.0265 87.4275C86.9362 87.1228 86.8467 86.8838 86.7723 86.7068C86.7351 86.6183 86.7019 86.5461 86.6748 86.4898C86.6551 86.4488 86.6376 86.4146 86.6299 86.3997C85.4418 83.9687 83.0847 82.4791 81.1753 81.6085C79.3684 80.7847 77.7597 80.4236 77.3775 80.3485C75.4627 79.8447 73.0065 79.5159 71.0595 79.3126C69.2534 79.1241 67.7813 79.0335 67.4935 79.0212ZM58.5168 79.4662C58.5176 79.4661 58.5248 79.4654 58.5363 79.4645C58.5218 79.4659 58.5161 79.4663 58.5168 79.4662Z" fill="#B1A643"/>
<path fill-rule="evenodd" clip-rule="evenodd" d="M123.734 81.9539C127.559 82.3876 129.643 83.7862 130.77 84.9857C131.832 86.1151 132.119 87.1477 132.146 87.245C132.148 87.2535 132.148 87.2549 132.147 87.2486L132.162 87.3212L132.184 87.3916C133.359 91.0008 132.954 95.1684 132.839 96.3554C132.835 96.3992 132.831 96.4389 132.827 96.4744C131.376 104.959 129.245 106.933 129.119 107.05C129.111 107.057 129.111 107.058 129.117 107.053L128.995 107.141L128.896 107.256C127.502 108.888 125.171 109.843 122.975 110.375C121.903 110.634 120.915 110.781 120.178 110.862C119.81 110.902 119.507 110.926 119.291 110.94C119.084 110.953 118.969 110.956 118.954 110.956C118.953 110.956 118.952 110.956 118.953 110.956H118.929L118.904 110.957C118.329 110.979 117.782 111 117.239 111C113.841 111 111.162 110.44 109.343 109.883C108.433 109.604 107.739 109.327 107.279 109.121C107.057 109.022 106.891 108.941 106.783 108.885L106.763 108.863L106.551 108.756C101.157 106.044 99.4083 100.709 99.1003 99.7696C99.0989 99.7654 99.0976 99.7612 99.0963 99.7572L99.1008 99.7556C97.6252 95.2486 97.4041 92.1515 97.5301 90.2168C97.5931 89.2491 97.7432 88.5666 97.8702 88.1379C97.9339 87.9232 97.9922 87.7706 98.0319 87.676C98.0658 87.5955 98.0872 87.5544 98.0969 87.5357C98.098 87.5335 98.099 87.5316 98.0999 87.5299L98.1057 87.5186L98.1112 87.5072C98.9152 85.853 100.63 84.6726 102.362 83.8832C103.205 83.4986 104.003 83.2293 104.606 83.054C104.906 82.9666 105.155 82.9034 105.333 82.8613C105.5 82.8218 105.595 82.8032 105.609 82.8006C105.61 82.8003 105.611 82.8002 105.611 82.8003L105.666 82.7908L105.72 82.7764C107.443 82.3185 109.761 82.0015 111.7 81.7991C113.352 81.6267 114.64 81.546 114.97 81.5253C115.03 81.5215 115.059 81.5198 115.052 81.5198H115.075L115.098 81.5189C116.83 81.4555 118.967 81.5613 120.702 81.6871C121.563 81.7495 122.316 81.8161 122.855 81.8671C123.124 81.8925 123.34 81.9141 123.49 81.9293L123.666 81.9471L123.718 81.9524L123.734 81.9539ZM115.006 79.0212L115.006 79.0206C116.879 78.952 119.125 79.0662 120.882 79.1936C121.767 79.2577 122.538 79.3259 123.09 79.3782C123.366 79.4043 123.588 79.4264 123.742 79.442L123.918 79.46H123.928L123.998 79.4678C128.377 79.9606 131.027 81.6082 132.592 83.2737C134.009 84.781 134.471 86.2316 134.579 86.6698C136.056 91.2695 135.313 96.8735 135.313 96.6671V96.773L135.295 96.8775C133.813 105.553 131.544 108.275 130.716 108.973C128.799 111.153 125.881 112.244 123.564 112.805C121.267 113.361 119.33 113.45 118.985 113.456C118.422 113.477 117.833 113.5 117.239 113.5C113.564 113.5 110.638 112.894 108.611 112.273C107.598 111.963 106.808 111.649 106.26 111.404C105.986 111.282 105.771 111.177 105.618 111.097C105.541 111.057 105.477 111.022 105.426 110.993C105.408 110.983 105.39 110.972 105.371 110.961C98.6192 107.532 96.7043 100.504 96.7719 100.655L96.7453 100.596L96.7249 100.534C95.1668 95.7744 94.8855 92.3566 95.0353 90.0544C95.1102 88.9038 95.2925 88.0373 95.4733 87.4275C95.5636 87.1228 95.653 86.8838 95.7275 86.7068C95.7647 86.6183 95.7978 86.5461 95.825 86.4898C95.8447 86.4488 95.8621 86.4146 95.8699 86.3997C97.0579 83.9687 99.415 82.4791 101.324 81.6085C103.131 80.7847 104.74 80.4236 105.122 80.3485C107.037 79.8447 109.493 79.5159 111.44 79.3126C113.246 79.1241 114.718 79.0335 115.006 79.0212ZM123.983 79.4662C123.982 79.4661 123.975 79.4654 123.963 79.4645C123.978 79.4659 123.984 79.4663 123.983 79.4662Z" fill="#B1A643"/>
<path fill-rule="evenodd" clip-rule="evenodd" d="M91.0735 91.6255C90.2017 91.607 89.0923 92.14 87.2736 94.168L85.2263 92.332C87.1097 90.2318 88.9528 88.8299 91.1317 88.8761C93.2358 88.9206 95.156 90.3244 97.1943 92.2506L95.3055 94.2494C93.2489 92.3059 92.0202 91.6455 91.0735 91.6255Z" fill="#B1A643"/>
<path fill-rule="evenodd" clip-rule="evenodd" d="M107.25 82.125L74.2499 82.125V80.375L107.25 80.375V82.125Z" fill="#B1A643"/>
<path d="M118.637 94.5822C118.637 99.322 114.795 103.164 110.055 103.164C105.315 103.164 101.473 99.322 101.473 94.5822C101.473 89.8424 105.315 86 110.055 86C114.795 86 118.637 89.8424 118.637 94.5822Z" fill="#DFCF3A"/>
<path d="M83.1644 94.5822C83.1644 99.322 79.322 103.164 74.5822 103.164C69.8424 103.164 66 99.322 66 94.5822C66 89.8424 69.8424 86 74.5822 86C79.322 86 83.1644 89.8424 83.1644 94.5822Z" fill="#DFCF3A"/>
<path d="M114.178 94.8638C114.178 96.2445 112.387 97.3638 110.178 97.3638C107.969 97.3638 106.178 96.2445 106.178 94.8638C106.178 93.4831 107.969 92.3638 110.178 92.3638C112.387 92.3638 114.178 93.4831 114.178 94.8638Z" fill="#595959"/>
<path d="M79.1782 94.8638C79.1782 96.2445 77.3874 97.3638 75.1782 97.3638C72.9691 97.3638 71.1782 96.2445 71.1782 94.8638C71.1782 93.4831 72.9691 92.3638 75.1782 92.3638C77.3874 92.3638 79.1782 93.4831 79.1782 94.8638Z" fill="#595959"/>
</svg>
