<svg width="202" height="178" viewBox="0 0 202 178" fill="none" xmlns="http://www.w3.org/2000/svg">
<path d="M141.158 15.8798C144.839 12.452 155.348 6 162 6C162 12.5866 156.369 22.3319 152.688 25.7597L112.016 66.73C108.855 69.6734 107.083 68.9113 101 68.9113C96.4975 68.9113 93.1449 69.6734 89.9837 66.73L49.3125 25.7597C45.631 22.3319 40 12.5866 40 6C46.6518 6 57.1607 12.452 60.8423 15.8798L101 51.971L141.158 15.8798Z" fill="#B1A643"/>
<path d="M192.201 44.62C201.413 38.6986 196.335 24.349 185.667 26.1562L129.47 35.6769C121.147 30.7324 111.445 27.9783 100.949 27.9783C89.3782 27.9783 78.7722 31.3251 69.9165 37.2634L16.0026 30.141C5.27536 28.7239 0.684922 43.2274 10.0932 48.8118L46.4013 70.3629C44.6376 76.514 43.6916 83.1564 43.6916 90.1667C43.6916 120.159 59.9626 145.338 85.0761 154.55L87.2633 164.005L94.6874 157.479L99.2835 172L105.898 157.393L112.674 163.811L115.381 154.241C140.033 144.596 158.206 120.432 158.206 90.1667C158.206 82.4677 157.065 75.2124 154.953 68.5643L192.201 44.62Z" fill="#B9A163"/>
<path fill-rule="evenodd" clip-rule="evenodd" d="M60.4534 36.0132C59.0131 70.5034 61.4368 97.6662 66.2923 117.168C69.0182 128.116 72.6739 137.325 77.3638 144.115C81.9175 150.708 90.1755 156.332 99.7062 156.557C109.268 156.783 117.126 150.54 121.962 144.115C126.932 137.511 130.683 129.343 133.846 118.452C139.645 98.4876 141.867 70.169 141.374 33.6601L129.47 35.6769C123.629 32.2069 117.109 29.8157 110.112 28.6981C110.303 44.0066 111.276 57.8081 112.134 69.9877C113.343 87.1383 114.325 101.073 112.58 111.472C112.06 114.571 110.346 115.969 109.163 116.935C108.757 117.266 108.413 117.546 108.202 117.827C107.376 118.925 101.92 122.2 101.322 122.2C100.724 122.2 93.1906 117.202 93.1906 117.202C93.1906 117.202 91.0873 117.168 90.0633 111.472C88.1161 100.639 89.8282 82.5124 91.9768 59.7642C92.8942 50.0518 93.8911 39.497 94.7168 28.3079C85.5664 29.2858 77.1565 32.4085 69.9165 37.2633L60.4534 36.0132ZM98.1818 133.55C98.1818 133.55 98.2072 133.535 98.2592 133.519C98.208 133.545 98.1818 133.55 98.1818 133.55ZM99.7062 133.549C99.7507 133.564 99.7722 133.578 99.7722 133.578C99.7722 133.578 99.7497 133.572 99.7062 133.549Z" fill="#DED0AB"/>
<path fill-rule="evenodd" clip-rule="evenodd" d="M111.361 115.993C111.902 115.565 111.994 114.779 111.566 114.237C111.138 113.696 110.352 113.604 109.81 114.032L101.808 120.359C101.15 120.879 100.215 120.859 99.5798 120.311L92.3392 114.066C91.8164 113.615 91.0271 113.673 90.5762 114.196C90.1253 114.719 90.1836 115.508 90.7064 115.959L97.947 122.204C98.4952 122.677 99.1352 122.988 99.8042 123.136V129.368C99.8042 130.058 100.364 130.618 101.054 130.618C101.745 130.618 102.304 130.058 102.304 129.368V122.931C102.676 122.782 103.031 122.579 103.359 122.32L111.361 115.993Z" fill="#595959"/>
<path d="M95 136C100.772 140.578 103.436 139.377 108 136" stroke="#595959" stroke-width="2.5" stroke-linecap="round"/>
<path fill-rule="evenodd" clip-rule="evenodd" d="M134.081 96.8231C133.908 102.473 129.222 107 123.466 107C117.602 107 112.847 102.299 112.847 96.5C112.847 90.701 117.602 86 123.466 86C128.275 86 132.338 89.1605 133.645 93.4953C134.455 92.9071 135.424 91.9534 136.133 90.324C136.47 89.5481 136.751 89.1006 137.564 88.4888C138.348 88.8224 137.901 91.3833 137.564 92.1592C137.526 92.2465 137.489 92.332 137.452 92.4158C136.444 94.739 136.01 95.7388 134.361 96.6731C134.268 96.7255 134.175 96.7755 134.081 96.8231Z" fill="#595959"/>
<path fill-rule="evenodd" clip-rule="evenodd" d="M78.3365 107C84.2013 107 88.9557 102.299 88.9557 96.5C88.9557 90.701 84.2013 86 78.3365 86C73.572 86 69.5404 89.1025 68.1953 93.3757C67.4201 92.78 66.5296 91.8473 65.8673 90.324C65.5299 89.5481 65.2486 89.1006 64.4364 88.4888C63.6516 88.8224 64.099 91.3833 64.4364 92.1592C64.4744 92.2465 64.5115 92.332 64.5479 92.4158C65.5564 94.739 65.9905 95.7388 67.6394 96.6731C67.6661 96.6882 67.6928 96.7031 67.7195 96.7177C67.8368 102.416 72.5452 107 78.3365 107Z" fill="#595959"/>
<path d="M127.006 91.6C127.006 93.1464 125.738 94.4 124.174 94.4C122.61 94.4 121.343 93.1464 121.343 91.6C121.343 90.0536 122.61 88.8 124.174 88.8C125.738 88.8 127.006 90.0536 127.006 91.6Z" fill="white"/>
<path d="M80.4604 91.6C80.4604 93.1464 79.1925 94.4 77.6286 94.4C76.0646 94.4 74.7968 93.1464 74.7968 91.6C74.7968 90.0536 76.0646 88.8 77.6286 88.8C79.1925 88.8 80.4604 90.0536 80.4604 91.6Z" fill="white"/>
</svg>
