<svg width="201" height="201" viewBox="0 0 201 201" fill="none" xmlns="http://www.w3.org/2000/svg">
<path d="M16 11C16.9775 15.4218 26.8695 24.0512 34.4139 30.6325C38.0645 33.8172 41.166 36.5228 42.441 38.0395L72.7572 82.6975C74.9791 85.3406 78.2727 86.9709 81.5226 86.9722H115.581C119.116 87.2385 122.822 85.5766 125.243 82.6975L155.559 38.0395C156.834 36.5227 159.935 33.8173 163.586 30.6324C171.13 24.0511 181.022 15.4217 182 11C174.191 11.3001 154.928 19.6305 147.36 26.9693L107.983 69.0561C107.457 69.6813 107.015 70.3458 106.654 71.0369H91.3456C90.985 70.3458 90.5426 69.6813 90.0171 69.0561L50.6403 26.9693C43.0725 19.6305 23.8092 11.3001 16 11Z" fill="#B1A643"/>
<path fill-rule="evenodd" clip-rule="evenodd" d="M187.326 69.2374C196.298 63.4377 191.352 49.3829 180.962 51.153L126.228 60.4781C118.123 55.6352 108.673 52.9377 98.4501 52.9377C87.1809 52.9377 76.851 56.2157 68.2259 62.0319L15.7161 55.0559C5.26819 53.6679 0.797294 67.8734 9.9606 73.3431L45.3232 94.4513C43.6054 100.476 42.684 106.982 42.684 113.848C42.684 143.225 58.5312 167.886 82.9908 176.909L85.121 186.17L92.3518 179.777L96.8282 194L103.271 179.693L109.87 185.979L112.506 176.606C136.516 167.159 154.216 143.492 154.216 113.848C154.216 106.307 153.105 99.2012 151.048 92.6897L187.326 69.2374Z" fill="#FEFCFC"/>
<path fill-rule="evenodd" clip-rule="evenodd" d="M190.83 57.5604C189.5 53.7797 185.924 50.9284 181.064 51.7562L126.109 61.1189L125.917 61.0039C117.906 56.2178 108.564 53.5495 98.4501 53.5495C87.3012 53.5495 77.0897 56.7917 68.5655 62.5399L68.3743 62.6688L15.6362 55.6625C10.7486 55.0131 7.26806 57.9898 6.06501 61.8123C4.86065 65.6389 5.96428 70.2459 10.2718 72.8171L46.0381 94.1663L45.9088 94.6198C44.2072 100.588 43.2932 107.037 43.2932 113.848C43.2932 143.007 59.0154 167.413 83.2008 176.334L83.5101 176.448L85.4848 185.033L92.651 178.698L96.9292 192.291L103.068 178.657L109.558 184.838L112.002 176.147L112.284 176.036C136.066 166.679 153.607 143.235 153.607 113.848C153.607 106.368 152.505 99.3243 150.467 92.8747L150.326 92.4285L186.997 68.7229C191.215 65.996 192.162 61.3456 190.83 57.5604ZM191.979 57.1526C193.475 61.4022 192.409 66.6791 187.656 69.7518L151.768 92.9517C153.755 99.4027 154.825 106.419 154.825 113.848C154.825 143.633 137.105 167.453 113.01 177.064L110.183 187.12L103.473 180.729L96.7272 195.709L92.0527 180.857L84.7573 187.306L82.4712 177.368C57.9139 168.151 42.0748 143.319 42.0748 113.848C42.0748 107.099 42.9581 100.691 44.6098 94.7372L9.64938 73.869C4.79363 70.9706 3.55105 65.74 4.90331 61.4434C6.25686 57.1428 10.2357 53.7107 15.796 54.4494L68.0783 61.3951C76.7654 55.5913 87.144 52.3258 98.4501 52.3258C108.701 52.3258 118.189 55.01 126.347 59.8374L180.861 50.5498C186.391 49.6076 190.482 52.8986 191.979 57.1526Z" fill="#FEFCFC"/>
<path d="M68.4988 160.589L75.8256 106.248L83.763 105.027L68.4988 160.589Z" fill="#66BADE"/>
<path d="M61.4525 116.614C61.4525 116.614 72.1867 59.2346 73.4078 58.6241C74.6289 58.0136 77.0468 56.8901 78.8785 56.1819L61.4525 116.614Z" fill="#66BADE"/>
<path d="M110.017 53.7398C97.806 51.2976 89.4285 51.6992 78.8785 56.1819L61.1721 117.476L80.2416 108.331L67.9025 163.85L101.555 88.0833L78.8785 100.143L110.017 53.7398Z" fill="#F0856D"/>
<circle cx="119.854" cy="116.728" r="10.48" fill="#82A0A2"/>
<circle cx="76.5366" cy="116.728" r="10.48" fill="#91EAF0"/>
<ellipse cx="119.786" cy="117.239" rx="6.10566" ry="4.88453" fill="#595959"/>
<ellipse cx="76.0433" cy="117.072" rx="4.88453" ry="3.05283" fill="#595959"/>
<path fill-rule="evenodd" clip-rule="evenodd" d="M107.438 134.711C108.079 134.19 108.188 133.235 107.681 132.577C107.175 131.919 106.245 131.807 105.605 132.327L98.4895 138.108C97.7112 138.74 96.6056 138.716 95.8543 138.05L89.4438 132.369C88.8256 131.821 87.8921 131.892 87.3589 132.527C86.8256 133.162 86.8946 134.121 87.5128 134.669L93.9233 140.351C94.5448 140.902 95.2661 141.272 96.0218 141.459L96.0218 147.481C96.0218 148.32 96.6836 149 97.5001 149C98.3165 149 98.9783 148.32 98.9783 147.481V141.273C99.4533 141.09 99.9075 140.829 100.323 140.491L107.438 134.711Z" fill="#595959"/>
<path fill-rule="evenodd" clip-rule="evenodd" d="M105.71 154.657C106.211 155.362 106.047 156.34 105.344 156.842C103.113 158.435 100.993 159.8 98.5638 159.98C96.0557 160.165 93.5829 159.083 90.6142 156.811C89.9284 156.286 89.797 155.303 90.3209 154.616C90.8447 153.928 91.8254 153.797 92.5112 154.322C95.2591 156.425 96.9636 156.957 98.3337 156.856C99.7823 156.749 101.242 155.925 103.53 154.291C104.233 153.789 105.209 153.953 105.71 154.657Z" fill="#595959"/>
</svg>
