<svg width="176" height="165" viewBox="0 0 176 165" fill="none" xmlns="http://www.w3.org/2000/svg">
<path fill-rule="evenodd" clip-rule="evenodd" d="M5.75513 0C8.82777 4.47517 40.1876 23 43.2551 27.5L63.2414 60.0217C66.731 64.3024 73.0301 64.9437 77.3108 61.4541C81.5915 57.9645 82.2328 51.6654 78.7432 47.3847L53.7551 19C47.2551 12 12.8278 0.975174 5.75513 0Z" fill="#B1A643"/>
<path fill-rule="evenodd" clip-rule="evenodd" d="M169.683 0C166.61 4.47517 135.251 23 132.183 27.5L112.197 60.0217C108.707 64.3024 102.408 64.9437 98.1275 61.4541C93.8468 57.9645 93.2055 51.6654 96.6951 47.3847L121.683 19C128.183 12 162.61 0.975174 169.683 0Z" fill="#B1A643"/>
<path fill-rule="evenodd" clip-rule="evenodd" d="M163.405 61.4937C170.769 56.7542 166.709 45.2685 158.182 46.715L113.257 54.3355C106.604 50.3778 98.8478 48.1733 90.457 48.1733C81.2075 48.1733 72.729 50.8521 65.6496 55.6052L22.5507 49.9044C13.9753 48.77 10.3056 60.3789 17.8267 64.8488L46.8516 82.0986C45.4417 87.0221 44.6854 92.3388 44.6854 97.9499C44.6854 121.957 57.6925 142.11 77.7683 149.484L79.5169 157.052L85.4518 151.828L89.1259 163.451L94.4137 151.759L99.8305 156.896L101.994 149.236C121.701 141.516 136.229 122.175 136.229 97.9499C136.229 91.7876 135.316 85.9804 133.628 80.6591L163.405 61.4937Z" fill="#343333"/>
<path d="M158.182 46.715L158.098 46.222L158.182 46.715ZM163.405 61.4937L163.675 61.9142L163.405 61.4937ZM113.257 54.3355L113.001 54.7652L113.159 54.8592L113.341 54.8285L113.257 54.3355ZM65.6496 55.6052L65.5841 56.1009L65.7714 56.1257L65.9284 56.0203L65.6496 55.6052ZM22.5507 49.9044L22.4851 50.4L22.5507 49.9044ZM17.8267 64.8488L17.5712 65.2786L17.8267 64.8488ZM46.8516 82.0986L47.3322 82.2363L47.4384 81.8657L47.107 81.6688L46.8516 82.0986ZM77.7683 149.484L78.2555 149.371L78.1946 149.107L77.9407 149.014L77.7683 149.484ZM79.5169 157.052L79.0297 157.164L79.2183 157.981L79.8472 157.427L79.5169 157.052ZM85.4518 151.828L85.9285 151.677L85.6973 150.946L85.1214 151.453L85.4518 151.828ZM89.1259 163.451L88.6491 163.602L89.043 164.848L89.5815 163.657L89.1259 163.451ZM94.4137 151.759L94.7577 151.396L94.2477 150.913L93.9581 151.553L94.4137 151.759ZM99.8305 156.896L99.4865 157.259L100.087 157.828L100.312 157.032L99.8305 156.896ZM101.994 149.236L101.812 148.77L101.58 148.861L101.513 149.1L101.994 149.236ZM133.628 80.6591L133.358 80.2387L133.036 80.4457L133.152 80.8104L133.628 80.6591ZM158.265 47.208C162.253 46.5314 165.189 48.8615 166.281 51.9512C167.374 55.0445 166.597 58.8448 163.134 61.0733L163.675 61.9142C167.577 59.4031 168.451 55.0908 167.224 51.618C165.995 48.1415 162.637 45.4521 158.098 46.222L158.265 47.208ZM113.341 54.8285L158.265 47.208L158.098 46.222L113.173 53.8426L113.341 54.8285ZM90.457 48.6733C98.7586 48.6733 106.427 50.8539 113.001 54.7652L113.513 53.9058C106.782 49.9017 98.9371 47.6733 90.457 47.6733V48.6733ZM65.9284 56.0203C72.9248 51.3228 81.3063 48.6733 90.457 48.6733V47.6733C81.1087 47.6733 72.5331 50.3813 65.3709 55.1901L65.9284 56.0203ZM22.4851 50.4L65.5841 56.1009L65.7152 55.1095L22.6163 49.4087L22.4851 50.4ZM18.0821 64.4189C14.5466 62.3177 13.6408 58.5528 14.6293 55.4257C15.6167 52.3019 18.4735 49.8694 22.4851 50.4L22.6163 49.4087C18.0525 48.805 14.7867 51.6097 13.6758 55.1243C12.5659 58.6355 13.5857 62.91 17.5712 65.2786L18.0821 64.4189ZM47.107 81.6688L18.0821 64.4189L17.5712 65.2786L46.5961 82.5285L47.107 81.6688ZM45.1854 97.9499C45.1854 92.3838 45.9356 87.1136 47.3322 82.2363L46.3709 81.961C44.9477 86.9307 44.1854 92.2938 44.1854 97.9499H45.1854ZM77.9407 149.014C58.0899 141.724 45.1854 121.779 45.1854 97.9499H44.1854C44.1854 122.135 57.2951 142.497 77.596 149.953L77.9407 149.014ZM80.0041 156.939L78.2555 149.371L77.2812 149.596L79.0297 157.164L80.0041 156.939ZM85.1214 151.453L79.1865 156.676L79.8472 157.427L85.7821 152.203L85.1214 151.453ZM89.6026 163.3L85.9285 151.677L84.975 151.979L88.6491 163.602L89.6026 163.3ZM93.9581 151.553L88.6703 163.245L89.5815 163.657L94.8693 151.965L93.9581 151.553ZM100.175 156.533L94.7577 151.396L94.0696 152.122L99.4865 157.259L100.175 156.533ZM101.513 149.1L99.3493 156.76L100.312 157.032L102.475 149.372L101.513 149.1ZM135.729 97.9499C135.729 121.965 121.331 141.123 101.812 148.77L102.176 149.701C122.071 141.908 136.729 122.385 136.729 97.9499H135.729ZM133.152 80.8104C134.824 86.081 135.729 91.837 135.729 97.9499H136.729C136.729 91.7381 135.809 85.8798 134.105 80.5079L133.152 80.8104ZM163.134 61.0733L133.358 80.2387L133.899 81.0796L163.675 61.9142L163.134 61.0733Z" fill="#FEFCFC"/>
<circle cx="108.194" cy="96.2184" r="8.58218" fill="#F97255"/>
<circle cx="72.7206" cy="96.2184" r="8.58218" fill="#F97255"/>
<ellipse cx="108.317" cy="96.5" rx="4" ry="2.5" fill="black"/>
<ellipse cx="73.3167" cy="96.5" rx="4" ry="2.5" fill="black"/>
<path fill-rule="evenodd" clip-rule="evenodd" d="M98.861 115.283C99.4026 114.855 99.4945 114.069 99.0663 113.527C98.6382 112.986 97.8521 112.894 97.3105 113.322L91.294 118.079C91.1456 118.196 90.9831 118.286 90.8131 118.349C90.7003 118.315 90.5809 118.297 90.4573 118.297C90.2566 118.297 90.067 118.344 89.899 118.428C89.5987 118.375 89.31 118.242 89.0656 118.031L83.6451 113.356C83.1223 112.905 82.333 112.963 81.8821 113.486C81.4312 114.009 81.4895 114.798 82.0122 115.249L87.4328 119.924C87.9584 120.378 88.5683 120.682 89.2073 120.837L89.2073 124.792C89.2073 125.482 89.7669 126.042 90.4573 126.042C91.1477 126.042 91.7073 125.482 91.7073 124.792V120.684C92.1089 120.532 92.493 120.318 92.8445 120.04L98.861 115.283Z" fill="#FEFCFC"/>
<path d="M85.3167 132C90.2255 129.951 92.2432 130.561 95.6153 132" stroke="#FEFCFC" stroke-width="2.5" stroke-linecap="round"/>
<path d="M74.7551 81C89.7551 90.3333 91.2551 90.3333 105.755 81" stroke="#FEFCFC" stroke-width="2.5" stroke-linecap="round"/>
</svg>
