<svg width="183" height="162" viewBox="0 0 183 162" fill="none" xmlns="http://www.w3.org/2000/svg">
<path d="M28.6771 14.6907C37.3093 20.4603 45.9618 26.2435 47.5 28.5L67.4862 61.0217C70.3123 64.4885 73.2449 64 78.9281 64H104.245C109.245 64 113.616 64.4885 116.442 61.0217L136.428 28.5C137.966 26.2435 146.618 20.4604 155.251 14.6907C163.833 8.95442 172.396 3.23106 173.928 1C166.855 1.97517 132.428 13 125.928 20L100.94 48.3847C100.776 48.5855 100.621 48.7908 100.476 49H83.452C83.3064 48.7908 83.1518 48.5855 82.9881 48.3847L58 20C51.5 13 17.0726 1.97517 10 1C11.5318 3.23106 20.0948 8.95442 28.6771 14.6907Z" fill="#B1A643"/>
<path fill-rule="evenodd" clip-rule="evenodd" d="M163.65 57.9037C171.013 53.1642 166.954 41.6785 158.426 43.125L113.502 50.7456C106.849 46.7879 99.0926 44.5835 90.7019 44.5835C81.4524 44.5835 72.9739 47.2623 65.8945 52.0154L22.7956 46.3145C14.2201 45.1802 10.5505 56.7891 18.0716 61.259L47.0964 78.5088C45.6865 83.4323 44.9303 88.749 44.9303 94.3601C44.9303 118.367 57.9373 138.52 78.0132 145.894L79.7617 153.462L85.6966 148.238L89.3707 159.861L94.6585 148.169L100.075 153.306L102.239 145.646C121.946 137.926 136.474 118.585 136.474 94.3601C136.474 88.1977 135.561 82.3905 133.873 77.0692L163.65 57.9037Z" fill="#B9A163"/>
<path fill-rule="evenodd" clip-rule="evenodd" d="M96.1214 126.628C91.6493 126.789 88.2012 126.913 82.9214 126.497L83.0785 124.503C88.2355 124.909 91.5576 124.79 96.0063 124.631C97.2237 124.587 98.5256 124.54 99.9725 124.5L100.027 126.5C98.6131 126.539 97.3299 126.585 96.1214 126.628Z" fill="#930D0D"/>
<path fill-rule="evenodd" clip-rule="evenodd" d="M99.2824 107.231C99.824 106.802 99.9159 106.016 99.4877 105.475C99.0596 104.933 98.2735 104.841 97.7319 105.269L91.7153 110.026C91.0572 110.547 90.1224 110.527 89.487 109.979L84.0664 105.303C83.5437 104.853 82.7544 104.911 82.3035 105.434C81.8526 105.956 81.9108 106.746 82.4336 107.197L87.8542 111.872C88.3797 112.325 88.9897 112.63 89.6287 112.784L89.6287 117.739C89.6287 118.43 90.1883 118.989 90.8787 118.989C91.569 118.989 92.1287 118.43 92.1287 117.739V112.631C92.5303 112.48 92.9143 112.265 93.2658 111.987L99.2824 107.231Z" fill="#595959"/>
<path fill-rule="evenodd" clip-rule="evenodd" d="M117.638 92.8463C117.498 97.4639 113.711 101.164 109.059 101.164C104.32 101.164 100.477 97.322 100.477 92.5822C100.477 87.8424 104.32 84 109.059 84C112.946 84 116.229 86.5832 117.285 90.1263C117.94 89.6455 118.723 88.866 119.296 87.5342C119.569 86.9 119.796 86.5342 120.452 86.0342C121.087 86.3069 120.725 88.4 120.452 89.0342C120.422 89.1056 120.392 89.1755 120.362 89.244C119.547 91.1428 119.196 91.96 117.864 92.7236C117.789 92.7665 117.714 92.8073 117.638 92.8463Z" fill="black"/>
<path fill-rule="evenodd" clip-rule="evenodd" d="M72.5864 101.164C77.3262 101.164 81.1686 97.322 81.1686 92.5822C81.1686 87.8424 77.3262 84 72.5864 84C68.7359 84 65.4776 86.5358 64.3906 90.0285C63.7641 89.5416 63.0444 88.7793 62.5091 87.5342C62.2364 86.9 62.0091 86.5342 61.3527 86.0342C60.7184 86.3069 61.08 88.4 61.3527 89.0342C61.3834 89.1056 61.4134 89.1755 61.4428 89.244C62.2579 91.1428 62.6087 91.96 63.9413 92.7236C63.9628 92.736 63.9844 92.7481 64.006 92.7602C64.1008 97.4178 67.9061 101.164 72.5864 101.164Z" fill="black"/>
<path d="M111.92 88.5772C111.92 89.8411 110.896 90.8657 109.632 90.8657C108.368 90.8657 107.343 89.8411 107.343 88.5772C107.343 87.3132 108.368 86.2886 109.632 86.2886C110.896 86.2886 111.92 87.3132 111.92 88.5772Z" fill="white"/>
<path d="M74.3029 88.5772C74.3029 89.8411 73.2783 90.8657 72.0144 90.8657C70.7504 90.8657 69.7258 89.8411 69.7258 88.5772C69.7258 87.3132 70.7504 86.2886 72.0144 86.2886C73.2783 86.2886 74.3029 87.3132 74.3029 88.5772Z" fill="white"/>
<path fill-rule="evenodd" clip-rule="evenodd" d="M107.178 78.3782C104.236 78.4093 100.206 79.5279 98.8493 79.9043C98.6978 79.9464 98.5795 79.9792 98.5 80.0002C98.2828 80.0575 98.5 80 97.7086 80.2579C95.5375 81.1833 93.6769 81.624 91.4028 81.6872C89.0575 81.7523 87.8983 81.0012 85 80.2579C84 80.0014 85 80.2579 84 80C84 80 84.1156 80.0299 83.5938 79.9043C80.4603 79.1507 77.9725 78.4093 75.0311 78.3782C72.5676 78.3521 67.287 78.8993 64.4332 79.195C63.3858 79.3036 62.6653 79.3782 62.5311 79.3782C62.0311 79.3782 59 79.7499 59 79.7499C59.4363 79.01 61.5311 78.1859 62.5311 77.8782C63.5822 77.5548 64.5195 77.2597 65.3686 76.9923C69.7698 75.6065 71.8003 74.9672 75.0311 75.0013C78.9828 75.0431 83 77 84 77.5C84.4998 77.7502 84.6893 77.868 85 78C87.4055 79.0228 89.4196 79.7415 91.3472 79.6879C93.3407 79.6325 94.868 78.7644 97 78C97.8787 77.685 97 78 97.7086 77.7499C98.7367 77.387 103.226 75.0431 107.178 75.0013C110.409 74.9672 112.439 75.6065 116.84 76.9923C117.689 77.2596 118.627 77.5548 119.678 77.8782C120.678 78.1859 122.773 79.01 123.209 79.7499C123.209 79.7499 120.178 79.3782 119.678 79.3782C119.543 79.3782 118.823 79.3036 117.776 79.195C114.922 78.8993 109.641 78.3521 107.178 78.3782Z" fill="black"/>
<path fill-rule="evenodd" clip-rule="evenodd" d="M97.1653 48.9456C96.7818 48.7525 96.4003 48.5339 96.0251 48.2898C92.6907 46.1208 91.1151 42.766 92.5058 40.7967C93.8965 38.8273 97.727 38.9891 101.061 41.1581C101.112 41.1909 101.162 41.224 101.211 41.2573C101.209 41.1719 101.208 41.0861 101.208 41C101.208 37.134 103.218 34 105.697 34C108.065 34 110.005 36.8613 110.173 40.4884C110.271 40.4156 110.37 40.3439 110.471 40.2732C113.728 37.9981 117.551 37.7132 119.01 39.6367C120.468 41.5602 119.011 44.9638 115.754 47.2388C115.179 47.6406 114.586 47.9803 113.992 48.2567C114.13 48.3329 114.268 48.4123 114.405 48.4951C117.815 50.5528 119.51 53.8536 118.19 55.8677C116.93 57.7921 113.374 57.8455 110.085 56.0516C109.65 59.4514 107.851 62 105.697 62C103.69 62 101.991 59.7882 101.416 56.737C98.6869 58.6045 95.6195 58.9531 94.1497 57.4208C92.4707 55.6706 93.512 52.129 96.4754 49.5105C96.7012 49.311 96.9316 49.1226 97.1653 48.9456Z" fill="#AB4444"/>
<path fill-rule="evenodd" clip-rule="evenodd" d="M69.8892 43.1416C69.6746 43.0106 69.4613 42.8623 69.2514 42.6966C67.3863 41.2248 66.505 38.9483 67.2829 37.612C68.0608 36.2756 70.2034 36.3855 72.0684 37.8573C72.0966 37.8795 72.1246 37.902 72.1523 37.9246C72.1512 37.8666 72.1506 37.8084 72.1506 37.75C72.1506 35.1266 73.2746 33 74.6611 33C75.9859 33 77.0711 34.9416 77.165 37.4028C77.2197 37.3534 77.2753 37.3047 77.3319 37.2568C79.1536 35.713 81.2917 35.5196 82.1077 36.8249C82.9236 38.1301 82.1083 40.4397 80.2866 41.9835C79.9649 42.2561 79.6334 42.4866 79.3009 42.6742C79.3783 42.7259 79.4554 42.7798 79.5321 42.836C81.4395 44.2323 82.3875 46.4721 81.6495 47.8388C80.9443 49.1446 78.9552 49.1809 77.1157 47.9636C76.8726 50.2706 75.866 52 74.6612 52C73.5388 52 72.5884 50.4991 72.2671 48.4286C70.7403 49.6959 69.0246 49.9324 68.2024 48.8927C67.2633 47.705 67.8457 45.3018 69.5033 43.5249C69.6296 43.3896 69.7584 43.2618 69.8892 43.1416Z" fill="#AB4444"/>
<path fill-rule="evenodd" clip-rule="evenodd" d="M81.3082 43.8104C80.9883 43.6449 80.6701 43.4575 80.3572 43.2483C77.5761 41.3891 76.2619 38.5136 77.4219 36.8255C78.5818 35.1375 81.7767 35.2762 84.5578 37.1354C84.5998 37.1635 84.6415 37.1918 84.6828 37.2204C84.6812 37.1472 84.6804 37.0738 84.6804 37C84.6804 33.6863 86.3564 31 88.4239 31C90.3994 31 92.0175 33.4526 92.1576 36.5617C92.2391 36.4992 92.3221 36.4377 92.4065 36.3771C95.1228 34.4271 98.3112 34.1828 99.5278 35.8316C100.745 37.4803 99.5288 40.3977 96.8124 42.3477C96.3328 42.692 95.8384 42.9832 95.3428 43.2201C95.458 43.2854 95.5729 43.3535 95.6872 43.4244C98.5314 45.1881 99.945 48.0174 98.8446 49.7438C97.7932 51.3932 94.8271 51.439 92.0841 49.9014C91.7216 52.8155 90.2206 55 88.424 55C86.7503 55 85.3331 53.1041 84.854 50.4887C82.5773 52.0894 80.019 52.3882 78.793 51.0749C77.3927 49.5747 78.2611 46.539 80.7328 44.2945C80.9211 44.1236 81.1133 43.9621 81.3082 43.8104Z" fill="#890F60"/>
<path fill-rule="evenodd" clip-rule="evenodd" d="M63.2288 53.1416C62.9147 53.0106 62.6024 52.8623 62.2953 52.6966C59.5655 51.2248 58.2755 48.9483 59.4141 47.612C60.5527 46.2756 63.6886 46.3855 66.4184 47.8573C66.4596 47.8795 66.5005 47.902 66.5411 47.9246C66.5395 47.8666 66.5387 47.8084 66.5387 47.75C66.5387 45.1266 68.1838 43 70.2132 43C72.1522 43 73.7404 44.9416 73.878 47.4028C73.958 47.3534 74.0394 47.3047 74.1222 47.2568C76.7885 45.713 79.918 45.5196 81.1122 46.8249C82.3064 48.1301 81.1131 50.4397 78.4469 51.9835C77.976 52.2561 77.4907 52.4866 77.0042 52.6742C77.1174 52.7259 77.2302 52.7798 77.3424 52.836C80.1342 54.2323 81.5217 56.4721 80.4416 57.8388C79.4095 59.1446 76.4982 59.1809 73.8058 57.9636C73.45 60.2706 71.9767 62 70.2132 62C68.5704 62 67.1794 60.4991 66.7091 58.4286C64.4745 59.6959 61.9633 59.9324 60.7599 58.8927C59.3854 57.705 60.2379 55.3018 62.664 53.5249C62.8488 53.3896 63.0374 53.2618 63.2288 53.1416Z" fill="#F9E109"/>
<path fill-rule="evenodd" clip-rule="evenodd" d="M95.3578 49.4526C95.1368 49.552 94.9032 49.641 94.6584 49.7179C92.4832 50.4012 90.2511 49.8671 89.6729 48.5249C89.0946 47.1827 90.3893 45.5407 92.5645 44.8574C92.5974 44.847 92.6302 44.837 92.6631 44.8272C92.6184 44.7967 92.5737 44.7656 92.5292 44.7339C90.531 43.3118 89.5464 41.2663 90.3301 40.1652C91.0789 39.1131 93.1711 39.3038 95.099 40.5635C95.0922 40.4933 95.0866 40.4227 95.082 40.3518C94.9358 38.0682 95.997 36.2653 97.4523 36.3249C98.9077 36.3845 100.206 38.284 100.352 40.5676C100.378 40.9708 100.366 41.3591 100.321 41.7247C100.404 41.6913 100.489 41.6594 100.575 41.6289C102.717 40.871 104.959 41.3324 105.583 42.6594C106.179 43.9272 105.082 45.5266 103.115 46.3276C104.735 47.7712 105.483 49.5082 104.802 50.465C104.168 51.3564 102.488 51.2976 100.729 50.4304C100.831 52.3298 100.042 53.8206 98.785 53.9099C97.3496 54.0118 95.8483 52.2465 95.4317 49.9669C95.4 49.7933 95.3754 49.6216 95.3578 49.4526Z" fill="#E49999"/>
<path fill-rule="evenodd" clip-rule="evenodd" d="M76.3371 52.8005C76.1556 52.73 75.9732 52.6468 75.7917 52.5506C74.1783 51.6957 73.2474 50.1439 73.7125 49.0844C74.1776 48.025 75.8624 47.8591 77.4758 48.714C77.5002 48.7269 77.5244 48.74 77.5485 48.7532C77.5415 48.7113 77.5348 48.669 77.5286 48.6266C77.249 46.7218 77.9001 45.0489 78.9829 44.89C80.0175 44.7381 81.0719 46.0235 81.4075 47.7998C81.4449 47.7576 81.4832 47.7159 81.5223 47.6746C82.7803 46.3449 84.4295 45.9594 85.2058 46.8136C85.9821 47.6677 85.5915 49.4381 84.3335 50.7678C84.1114 51.0026 83.877 51.2079 83.6375 51.3822C83.7033 51.4109 83.7692 51.4412 83.8351 51.4731C85.4734 52.2683 86.4525 53.7859 86.0218 54.8628C85.6103 55.8917 84.0608 56.1461 82.4945 55.4731C82.5506 57.176 81.9488 58.5471 81.0079 58.6852C80.1314 58.8139 79.2292 57.8331 78.7576 56.3666C77.7004 57.4618 76.3857 57.8302 75.6328 57.1695C74.7729 56.4149 74.9716 54.6032 76.0766 53.1231C76.1608 53.0103 76.2478 52.9027 76.3371 52.8005Z" fill="#E49999"/>
<path fill-rule="evenodd" clip-rule="evenodd" d="M87.65 51.8659C87.6261 51.6078 87.6164 51.3417 87.6224 51.0696C87.6753 48.6513 88.9397 46.6801 90.4466 46.6667C91.9534 46.6533 93.132 48.6029 93.0791 51.0212C93.0783 51.0577 93.0772 51.0942 93.0759 51.1305C93.1206 51.0991 93.1659 51.0682 93.2117 51.0375C95.2683 49.6628 97.599 49.5409 98.4175 50.7653C99.1995 51.9352 98.3179 53.911 96.4437 55.2838C96.5147 55.3061 96.5858 55.3297 96.6568 55.3546C98.9424 56.1543 100.356 57.9411 99.8145 59.3456C99.2729 60.7501 96.981 61.2405 94.6954 60.4408C94.2918 60.2996 93.9153 60.1276 93.5721 59.9323C93.5772 60.0277 93.5804 60.124 93.5817 60.2212C93.6129 62.6373 92.4166 64.6482 90.9095 64.7127C89.4696 64.7743 88.267 63.0368 88.1355 60.7745C86.1834 61.7687 84.2335 61.7861 83.5223 60.7221C82.8597 59.7309 83.4754 58.1052 84.9089 56.7364C83.0142 56.0522 81.8159 54.661 82.1458 53.3902C82.5225 51.9385 84.7503 51.1934 87.1218 51.726C87.3024 51.7666 87.4787 51.8134 87.65 51.8659Z" fill="#F9E109"/>
<path d="M25.657 69.7373L28.7839 69.938C28.7357 69.1076 28.7175 68.0535 28.795 67.1561C28.8411 66.6224 28.9233 66.1122 29.0695 65.7337C29.142 65.5458 29.2428 65.3564 29.3918 65.2162C29.5546 65.0629 29.7752 64.9707 30.0315 65.0085L29.9141 65.7757C29.9263 65.7775 29.9368 65.7735 29.9414 65.7717L29.9434 65.7716L29.9421 65.7729L29.9394 65.7754L29.9387 65.7762C29.9109 65.8023 29.8619 65.8699 29.8083 66.0087C29.7022 66.2836 29.6267 66.7063 29.5822 67.2216C29.5059 68.1056 29.5275 69.1684 29.5784 69.989L32.8578 70.1995C33.4739 70.239 34.0101 70.6272 34.2307 71.1935L37.5637 79.7489C37.6144 79.8791 37.9012 80.4455 38 80.7243C38 80.7243 38 80.7243 38 80.8335V88.5924C38 89.0744 37.602 89.4652 37.1111 89.4652C36.6202 89.4652 36.2222 89.0744 36.2222 88.5924V82.1536L34.8395 83.188V91.6959C34.8395 92.178 34.4416 92.5688 33.9506 92.5688C33.4597 92.5688 33.0617 92.178 33.0617 91.6959V84.5182L30.8889 86.1438V97.1271C30.8889 97.6092 30.4909 98 30 98C29.5091 98 29.1111 97.6092 29.1111 97.1271V86.33C28.9667 86.2538 28.8323 86.1543 28.7139 86.0319L27.3142 84.5851L26.9376 94.0453C26.9185 94.527 26.5052 94.9021 26.0147 94.8834C25.5241 94.8645 25.142 94.4588 25.1612 93.9771L25.6055 82.8188L23.9608 81.1187L23.7776 89.3872C23.7669 89.8692 23.3604 90.2514 22.8696 90.2409C22.3788 90.2304 21.9896 89.8312 22.0002 89.3493L22.2236 79.2636C22.2267 79.1236 22.2236 79.1786 22.2236 79.1786C22.2236 79.1786 22.3306 78.6119 22.3594 78.4804L24.0091 70.959C24.1741 70.207 24.8753 69.6871 25.657 69.7373Z" fill="#98B7C5"/>
<path d="M154.343 68.7373L151.216 68.938C151.264 68.1076 151.282 67.0535 151.205 66.1561C151.159 65.6224 151.077 65.1122 150.931 64.7337C150.858 64.5458 150.757 64.3564 150.608 64.2162C150.445 64.0629 150.225 63.9707 149.968 64.0085L150.086 64.7757C150.074 64.7775 150.063 64.7735 150.059 64.7717L150.057 64.7716L150.058 64.7729L150.061 64.7754L150.061 64.7762C150.089 64.8023 150.138 64.8699 150.192 65.0087C150.298 65.2836 150.373 65.7063 150.418 66.2216C150.494 67.1056 150.473 68.1684 150.422 68.989L147.142 69.1995C146.526 69.239 145.99 69.6272 145.769 70.1935L142.436 78.7489C142.386 78.8791 142.099 79.4455 142 79.7243C142 79.7243 142 79.7243 142 79.8335V87.5924C142 88.0744 142.398 88.4652 142.889 88.4652C143.38 88.4652 143.778 88.0744 143.778 87.5924V81.1536L145.16 82.188V90.6959C145.16 91.178 145.558 91.5688 146.049 91.5688C146.54 91.5688 146.938 91.178 146.938 90.6959V83.5182L149.111 85.1438V96.1271C149.111 96.6092 149.509 97 150 97C150.491 97 150.889 96.6092 150.889 96.1271V85.33C151.033 85.2538 151.168 85.1543 151.286 85.0319L152.686 83.5851L153.062 93.0453C153.082 93.527 153.495 93.9021 153.985 93.8834C154.476 93.8645 154.858 93.4588 154.839 92.9771L154.395 81.8188L156.039 80.1187L156.222 88.3872C156.233 88.8692 156.64 89.2514 157.13 89.2409C157.621 89.2304 158.01 88.8312 158 88.3493L157.776 78.2636C157.773 78.1236 157.776 78.1786 157.776 78.1786C157.776 78.1786 157.669 77.6119 157.641 77.4804L155.991 69.959C155.826 69.207 155.125 68.6871 154.343 68.7373Z" fill="#98B7C5"/>
<path d="M110.216 45.7497C110.322 44.7171 111.713 44.459 112.182 45.3848V45.3848C112.431 45.8757 113.022 46.0861 113.524 45.8606L113.599 45.8272C114.527 45.41 115.418 46.4755 114.843 47.3155V47.3155C114.53 47.7736 114.646 48.3991 115.103 48.7142V48.7142C115.941 49.292 115.491 50.6063 114.475 50.5499L114.394 50.5454C113.844 50.515 113.368 50.9237 113.311 51.4712V51.4712C113.205 52.5038 111.814 52.7619 111.345 51.8361V51.8361C111.096 51.3452 110.505 51.1347 110.003 51.3603L109.928 51.3937C109 51.8109 108.109 50.7453 108.684 49.9054V49.9054C108.997 49.4473 108.881 48.8218 108.424 48.5067V48.5067C107.586 47.9289 108.036 46.6146 109.052 46.6709L109.133 46.6754C109.683 46.7059 110.159 46.2972 110.216 45.7497V45.7497Z" fill="#F8F6EB"/>
<path d="M109.216 53.7497C109.322 52.7171 110.713 52.459 111.182 53.3848V53.3848C111.431 53.8757 112.022 54.0861 112.524 53.8606L112.599 53.8272C113.527 53.41 114.418 54.4755 113.843 55.3155V55.3155C113.53 55.7736 113.646 56.3991 114.103 56.7142V56.7142C114.941 57.292 114.491 58.6063 113.475 58.5499L113.394 58.5454C112.844 58.515 112.368 58.9237 112.311 59.4712V59.4712C112.205 60.5038 110.814 60.7619 110.345 59.8361V59.8361C110.096 59.3452 109.505 59.1347 109.003 59.3603L108.928 59.3937C108 59.8109 107.109 58.7453 107.684 57.9054V57.9054C107.997 57.4473 107.881 56.8218 107.424 56.5067V56.5067C106.586 55.9289 107.036 54.6146 108.052 54.6709L108.133 54.6754C108.683 54.7059 109.159 54.2972 109.216 53.7497V53.7497Z" fill="#F8F6EB"/>
<path d="M102.216 49.7497C102.322 48.7171 103.713 48.459 104.182 49.3848V49.3848C104.431 49.8757 105.022 50.0861 105.524 49.8606L105.599 49.8272C106.527 49.41 107.418 50.4755 106.843 51.3155V51.3155C106.53 51.7736 106.646 52.3991 107.103 52.7142V52.7142C107.941 53.292 107.491 54.6063 106.475 54.5499L106.394 54.5454C105.844 54.515 105.368 54.9237 105.311 55.4712V55.4712C105.205 56.5038 103.814 56.7619 103.345 55.8361V55.8361C103.096 55.3452 102.505 55.1347 102.003 55.3603L101.928 55.3937C101 55.8109 100.109 54.7453 100.684 53.9054V53.9054C100.997 53.4473 100.881 52.8218 100.424 52.5067V52.5067C99.5863 51.9289 100.036 50.6146 101.052 50.6709L101.133 50.6754C101.683 50.7059 102.159 50.2972 102.216 49.7497V49.7497Z" fill="#F8F6EB"/>
<ellipse cx="30" cy="77.5" rx="4" ry="4.5" fill="#335E3A"/>
<ellipse cx="150" cy="76.5" rx="4" ry="4.5" fill="#335E3A"/>
</svg>
