<svg width="165" height="139" viewBox="0 0 165 139" fill="none" xmlns="http://www.w3.org/2000/svg">
<g clip-path="url(#clip0)">
<path d="M113.227 15.223C116.184 12.4987 124.622 7.37085 129.963 7.37085C129.963 12.6057 125.442 20.3509 122.486 23.0753L89.8275 55.6372C87.2891 57.9765 85.8662 57.3708 80.9817 57.3708C77.3662 57.3708 74.6742 57.9765 72.1358 55.6372L39.4777 23.0753C36.5216 20.3509 32 12.6057 32 7.37085C37.3412 7.37085 45.7797 12.4987 48.7359 15.223L80.9816 43.9072L113.227 15.223Z" fill="#B1A643" stroke="black" stroke-linecap="round" stroke-linejoin="round"/>
<path fill-rule="evenodd" clip-rule="evenodd" d="M153.176 44.1243C160.516 40.0685 156.47 30.24 147.969 31.4778L103.187 37.9989C96.555 34.6123 88.8233 32.7259 80.4592 32.7259C71.2389 32.7259 62.7872 35.0182 55.7303 39.0855L12.7677 34.2072C4.21943 33.2365 0.561422 43.1704 8.05867 46.9954L36.9917 61.7564C35.5862 65.9695 34.8324 70.5191 34.8324 75.3206C34.8324 95.8636 47.7983 113.109 67.8106 119.419L69.5536 125.895L75.4697 121.425L79.1322 131.371L84.4032 121.366L89.8029 125.762L91.9595 119.207C111.604 112.601 126.086 96.0504 126.086 75.3206C126.086 70.0473 125.177 65.078 123.494 60.5245L153.176 44.1243Z" fill="#FEFCFC" stroke="black"/>
<path d="M105.107 31.9213L108.908 42.1744C109.983 45.0742 109.871 48.3272 108.603 51.003L108.489 51.2439C106.955 54.4812 103.962 56.3959 100.71 56.2205L91.6931 55.7343C84.8819 55.367 80.6904 46.5729 84.1924 39.9973L89.5224 29.9895C93.194 23.0956 102.252 24.2183 105.107 31.9213Z" fill="#D91515" stroke="black"/>
<path d="M104.608 46.9567C103.851 48.4339 102.045 48.9876 100.571 48.1833C99.0982 47.379 98.5259 45.527 99.2834 44.0498C100.041 42.5727 101.847 42.019 103.32 42.8233C104.793 43.6276 105.365 45.4795 104.608 46.9567Z" fill="#D91515" stroke="black"/>
<path d="M122.252 40.5188L112.363 42.7779C110.003 43.3169 108.015 44.9722 106.87 47.3498L106.754 47.5906C105.077 51.0731 105.476 55.525 107.764 58.8619L113.286 66.9144C117.42 72.9417 125.321 72.4307 128.071 65.9582L132.554 55.4059C135.753 47.8752 129.514 38.8597 122.252 40.5188Z" fill="#D91515" stroke="black"/>
<path d="M111.41 50.5223C110.652 51.9995 111.225 53.8514 112.698 54.6557C114.171 55.46 115.977 54.9064 116.734 53.4292C117.492 51.952 116.92 50.1001 115.446 49.2958C113.973 48.4915 112.167 49.0451 111.41 50.5223Z" fill="#D91515" stroke="black"/>
<path d="M113.11 52.886C111.469 56.0869 107.56 57.2809 104.377 55.5429C101.193 53.8049 99.9508 49.7987 101.592 46.5978C103.233 43.397 107.142 42.2029 110.326 43.9409C113.509 45.679 114.752 49.6851 113.11 52.886Z" fill="#D91515" stroke="black"/>
<ellipse cx="57" cy="88.3708" rx="4" ry="5" fill="black"/>
<ellipse cx="103" cy="88.3708" rx="4" ry="5" fill="black"/>
<path d="M84.5 99.8708C84.5 100.629 84.0614 101.367 83.2488 101.936C82.4378 102.504 81.2907 102.871 80 102.871C78.7093 102.871 77.5622 102.504 76.7512 101.936C75.9386 101.367 75.5 100.629 75.5 99.8708C75.5 99.1123 75.9386 98.3744 76.7512 97.8056C77.5622 97.2379 78.7093 96.8708 80 96.8708C81.2907 96.8708 82.4378 97.2379 83.2488 97.8056C84.0614 98.3744 84.5 99.1123 84.5 99.8708Z" fill="#F9E109" stroke="black"/>
</g>
<defs>
<clipPath id="clip0">
<rect width="165" height="139" fill="white"/>
</clipPath>
</defs>
</svg>
