<svg width="230" height="227" viewBox="0 0 230 227" fill="none" xmlns="http://www.w3.org/2000/svg">
<path d="M7.47395 0C18.6848 0 36.3967 10.2498 42.6015 15.6953L111.436 74.0069C112.446 74.8935 113.308 75.886 114.02 76.9533C114.732 75.886 115.594 74.8935 116.604 74.0069L185.439 15.6953C191.644 10.2498 209.356 0 220.567 0C220.567 10.4635 211.076 25.9451 204.871 31.3906L136.324 96.4765C133.83 98.6654 130.813 99.875 127.742 100.136L127.766 100.159H127.44C126.794 100.2 126.145 100.2 125.5 100.159H102.541C101.895 100.2 101.247 100.2 100.601 100.159H100.112L100.161 100.124C97.1378 99.8386 94.1732 98.6327 91.7164 96.4765L23.1692 31.3906C16.9644 25.9451 7.47393 10.4635 7.47395 0Z" fill="#B1A643"/>
<path fill-rule="evenodd" clip-rule="evenodd" d="M223.695 74.5956C234.702 67.5109 228.634 50.3422 215.887 52.5045L148.734 63.8956C138.789 57.9798 127.195 54.6846 114.653 54.6846C100.827 54.6846 88.1534 58.6888 77.5714 65.7937L13.1475 57.2721C0.329045 55.5766 -5.15626 72.9294 6.08612 79.6109L49.4722 105.396C47.3647 112.755 46.2342 120.703 46.2342 129.09C46.2342 164.975 65.677 195.1 95.6862 206.122L98.2998 217.435L107.171 209.626L112.663 227L120.567 209.523L128.664 217.202L131.898 205.752C161.356 194.212 183.072 165.301 183.072 129.09C183.072 119.879 181.709 111.198 179.185 103.244L223.695 74.5956Z" fill="#846820"/>
<path fill-rule="evenodd" clip-rule="evenodd" d="M127.479 155.877C128.289 155.237 128.426 154.062 127.786 153.253C127.146 152.443 126.31 152.47 126.31 152.47H117.668H111.689H103.888C103.888 152.47 102.773 152.41 102.099 153.191C101.425 153.973 101.512 155.152 102.294 155.826L110.396 162.815C111.182 163.492 112.094 163.948 113.049 164.179L113.049 171.586C113.049 172.617 113.885 173.454 114.917 173.454C115.949 173.454 116.786 172.617 116.786 171.586V163.95C117.386 163.724 117.96 163.403 118.486 162.988L127.479 155.877Z" fill="black"/>
<path fill-rule="evenodd" clip-rule="evenodd" d="M98.6561 178.254C98.6561 177.222 99.4926 176.385 100.525 176.385H130.42C131.452 176.385 132.289 177.222 132.289 178.254C132.289 179.285 131.452 180.122 130.42 180.122H100.525C99.4926 180.122 98.6561 179.285 98.6561 178.254Z" fill="black"/>
<path d="M181.389 104.441C126.617 112.146 96.3843 112.279 42.9406 105.558L43.1412 130.431C98.8194 140.549 128.995 139.434 181.59 129.315L181.389 104.441Z" fill="#B1A643"/>
<path fill-rule="evenodd" clip-rule="evenodd" d="M47.4927 129.314L47.3183 107.685L50.5887 107.659L50.7631 129.288L47.4927 129.314Z" fill="#DFCF3A"/>
<path fill-rule="evenodd" clip-rule="evenodd" d="M54.0861 135.75L53.9117 114.121L57.1822 114.095L57.3566 135.724L54.0861 135.75Z" fill="#DFCF3A"/>
<path fill-rule="evenodd" clip-rule="evenodd" d="M60.5917 131.372L60.4347 111.906L63.7052 111.879L63.8621 131.345L60.5917 131.372Z" fill="#DFCF3A"/>
<path fill-rule="evenodd" clip-rule="evenodd" d="M67.1852 137.808L66.9933 114.016L70.2638 113.989L70.4556 137.781L67.1852 137.808Z" fill="#DFCF3A"/>
<path fill-rule="evenodd" clip-rule="evenodd" d="M73.6911 133.429L73.4992 109.637L76.7697 109.611L76.9615 133.403L73.6911 133.429Z" fill="#DFCF3A"/>
<path fill-rule="evenodd" clip-rule="evenodd" d="M80.2671 137.702L80.0927 116.073L83.3631 116.047L83.5376 137.676L80.2671 137.702Z" fill="#DFCF3A"/>
<path fill-rule="evenodd" clip-rule="evenodd" d="M86.7734 133.324L86.5815 109.532L89.852 109.505L90.0438 133.297L86.7734 133.324Z" fill="#DFCF3A"/>
<path fill-rule="evenodd" clip-rule="evenodd" d="M93.3487 137.597L93.1743 115.968L96.4447 115.941L96.6191 137.57L93.3487 137.597Z" fill="#DFCF3A"/>
<path fill-rule="evenodd" clip-rule="evenodd" d="M99.8724 135.381L99.6805 111.589L102.951 111.563L103.143 135.355L99.8724 135.381Z" fill="#DFCF3A"/>
<path fill-rule="evenodd" clip-rule="evenodd" d="M106.431 137.491L106.256 115.862L109.527 115.836L109.701 137.465L106.431 137.491Z" fill="#DFCF3A"/>
<path fill-rule="evenodd" clip-rule="evenodd" d="M112.954 135.276L112.762 111.484L116.033 111.457L116.224 135.249L112.954 135.276Z" fill="#DFCF3A"/>
<path fill-rule="evenodd" clip-rule="evenodd" d="M119.512 137.386L119.338 115.757L122.608 115.73L122.783 137.359L119.512 137.386Z" fill="#DFCF3A"/>
<path fill-rule="evenodd" clip-rule="evenodd" d="M126.036 135.17L125.844 111.378L129.115 111.352L129.306 135.144L126.036 135.17Z" fill="#DFCF3A"/>
<path fill-rule="evenodd" clip-rule="evenodd" d="M132.594 137.28L132.419 115.651L135.69 115.625L135.864 137.254L132.594 137.28Z" fill="#DFCF3A"/>
<path fill-rule="evenodd" clip-rule="evenodd" d="M139.1 132.902L138.908 109.11L142.179 109.083L142.37 132.875L139.1 132.902Z" fill="#DFCF3A"/>
<path fill-rule="evenodd" clip-rule="evenodd" d="M145.676 137.175L145.502 115.546L148.772 115.519L148.947 137.148L145.676 137.175Z" fill="#DFCF3A"/>
<path fill-rule="evenodd" clip-rule="evenodd" d="M152.182 132.796L151.99 109.004L155.261 108.978L155.452 132.77L152.182 132.796Z" fill="#DFCF3A"/>
<path fill-rule="evenodd" clip-rule="evenodd" d="M158.741 134.906L158.566 113.277L161.837 113.251L162.011 134.88L158.741 134.906Z" fill="#DFCF3A"/>
<path fill-rule="evenodd" clip-rule="evenodd" d="M165.246 130.528L165.054 106.736L168.325 106.71L168.517 130.502L165.246 130.528Z" fill="#DFCF3A"/>
<path fill-rule="evenodd" clip-rule="evenodd" d="M178.311 128.259L178.119 104.468L181.389 104.441L181.581 128.233L178.311 128.259Z" fill="#DFCF3A"/>
<path fill-rule="evenodd" clip-rule="evenodd" d="M171.822 134.801L171.63 111.009L174.901 110.983L175.093 134.775L171.822 134.801Z" fill="#DFCF3A"/>
<path fill-rule="evenodd" clip-rule="evenodd" d="M40.2075 104.653L43.2978 105.038C96.9225 111.72 127.151 111.586 182.118 103.918L185.197 103.488L185.441 133.674L183.212 134.1C129.901 144.271 99.147 145.4 42.6711 135.23L40.4508 134.83L40.2075 104.653ZM45.708 110.784L45.8654 130.306C99.4273 139.78 129.311 138.744 179.954 129.212L179.796 109.698C127.325 116.867 96.9156 117.015 45.708 110.784Z" fill="#C4C4C4"/>
</svg>
