<svg width="196" height="181" viewBox="0 0 196 181" fill="none" xmlns="http://www.w3.org/2000/svg">
<path d="M33.6771 31.6907C42.3093 37.4603 50.9618 43.2435 52.5 45.5L72.4862 78.0217C75.3123 81.4885 78.2449 81 83.9281 81H109.245C114.245 81 118.616 81.4885 121.442 78.0217L141.428 45.5C142.966 43.2435 151.618 37.4604 160.251 31.6907C168.833 25.9544 177.396 20.2311 178.928 18C171.855 18.9752 137.428 30 130.928 37L105.94 65.3847C105.776 65.5855 105.621 65.7908 105.476 66H88.452C88.3064 65.7908 88.1518 65.5855 87.9881 65.3847L63 37C56.5 30 22.0726 18.9752 15 18C16.5318 20.2311 25.0948 25.9544 33.6771 31.6907Z" fill="#B1A643"/>
<path fill-rule="evenodd" clip-rule="evenodd" d="M170.65 70.9037C178.013 66.1642 173.954 54.6785 165.426 56.125L120.502 63.7456C113.849 59.7879 106.093 57.5835 97.7019 57.5835C88.4524 57.5835 79.9739 60.2623 72.8945 65.0154L29.7956 59.3145C21.2201 58.1802 17.5505 69.7891 25.0716 74.259L54.0964 91.5088C52.6865 96.4323 51.9303 101.749 51.9303 107.36C51.9303 131.367 64.9373 151.52 85.0132 158.894L86.7617 166.462L92.6966 161.238L96.3707 172.861L101.658 161.169L107.075 166.306L109.239 158.646C128.946 150.926 143.474 131.585 143.474 107.36C143.474 101.198 142.561 95.3905 140.873 90.0692L170.65 70.9037Z" fill="#C4C4C4"/>
<path fill-rule="evenodd" clip-rule="evenodd" d="M97.4686 111.76C98.5929 111.696 99.7036 112.075 100.608 112.754C104.793 127.779 112.211 131.651 121.691 131.81C138.359 131.514 139.834 112.193 139.907 109.59C139.981 106.988 142 103.528 142 103.528L141.414 98.9991C108.277 94.0579 100.56 109.051 100.56 109.051C99.6567 108.481 97.6711 108.518 97.4823 108.522L97.4686 108.522L97.455 108.522C97.2623 108.518 95.1856 108.48 94.2819 109.051C94.2819 109.051 86.6601 94.0579 53.5232 98.9991L53 103.496C53 103.496 54.9985 106.945 55.0926 109.559C55.1868 112.172 56.6517 131.503 73.3091 131.778C82.726 131.651 90.1444 127.779 94.3297 112.754C95.2336 112.075 96.3444 111.696 97.4686 111.76ZM121.021 128C115.631 128 112.479 126.408 112.424 126.38L112.424 126.38C107.681 124.215 106.314 119.842 106.263 119.677L106.261 119.672C103.962 113.313 105.495 110.724 105.57 110.618C107.037 107.91 111.482 107.014 111.967 106.916L112.003 106.908C114.769 106.242 119.308 106.015 119.353 106.015C119.653 106 119.954 106 120.27 106H120.27C122.9 106 126.041 106.303 126.071 106.318C132.253 106.945 133.259 110.415 133.329 110.655L133.331 110.663C134.413 113.646 134.214 115.06 133.857 117.28C133.5 119.5 133 122 130 125C127.157 127.843 123.028 127.951 122.4 127.967C122.383 127.968 122.369 127.968 122.357 127.969C122.345 127.969 122.335 127.969 122.329 127.97L122.284 127.971L122.284 127.971C121.849 127.986 121.428 128 121.021 128ZM81.7168 126.38C81.6626 126.408 78.5098 128 73.1199 128C72.713 128 72.292 127.986 71.857 127.971L71.8122 127.97C71.7997 127.969 71.7757 127.968 71.7411 127.967C71.1129 127.951 66.9844 127.843 64.1411 125C61.1411 122 60.6411 119.5 60.2839 117.28C59.9268 115.06 59.7278 113.646 60.81 110.663C60.8106 110.661 60.8114 110.659 60.8124 110.655C60.8821 110.415 61.8882 106.945 68.0697 106.318C68.0997 106.303 71.2411 106 73.8714 106H73.8715C74.1871 106 74.4877 106 74.7882 106.015C74.8333 106.015 79.3725 106.242 82.1381 106.908C82.1451 106.91 82.1571 106.912 82.1739 106.916C82.6588 107.014 87.1037 107.91 88.5711 110.618C88.6463 110.724 90.1794 113.313 87.8797 119.672C87.8795 119.673 87.879 119.675 87.8783 119.677C87.8266 119.842 86.4597 124.215 81.7173 126.38L81.7168 126.38Z" fill="#7D2F99"/>
<path fill-rule="evenodd" clip-rule="evenodd" d="M124.638 114.846C124.498 119.464 120.711 123.164 116.059 123.164C111.32 123.164 107.477 119.322 107.477 114.582C107.477 109.842 111.32 106 116.059 106C119.946 106 123.229 108.583 124.285 112.126C124.94 111.645 125.723 110.866 126.296 109.534C126.569 108.9 126.796 108.534 127.452 108.034C128.087 108.307 127.725 110.4 127.452 111.034C127.422 111.106 127.392 111.175 127.362 111.244C126.547 113.143 126.196 113.96 124.864 114.724C124.789 114.766 124.714 114.807 124.638 114.846Z" fill="#595959"/>
<path fill-rule="evenodd" clip-rule="evenodd" d="M79.5864 123.164C84.3262 123.164 88.1686 119.322 88.1686 114.582C88.1686 109.842 84.3262 106 79.5864 106C75.7359 106 72.4776 108.536 71.3906 112.029C70.7641 111.542 70.0444 110.779 69.5091 109.534C69.2364 108.9 69.0091 108.534 68.3527 108.034C67.7184 108.307 68.08 110.4 68.3527 111.034C68.3834 111.106 68.4134 111.175 68.4428 111.244C69.2579 113.143 69.6087 113.96 70.9413 114.724C70.9628 114.736 70.9844 114.748 71.006 114.76C71.1008 119.418 74.9061 123.164 79.5864 123.164Z" fill="#595959"/>
<path d="M118.92 110.577C118.92 111.841 117.896 112.866 116.632 112.866C115.368 112.866 114.343 111.841 114.343 110.577C114.343 109.313 115.368 108.289 116.632 108.289C117.896 108.289 118.92 109.313 118.92 110.577Z" fill="white"/>
<path d="M81.3029 110.577C81.3029 111.841 80.2783 112.866 79.0144 112.866C77.7504 112.866 76.7258 111.841 76.7258 110.577C76.7258 109.313 77.7504 108.289 79.0144 108.289C80.2783 108.289 81.3029 109.313 81.3029 110.577Z" fill="white"/>
<path d="M99.2472 154.326C98.9081 154.572 98.4515 154.581 98.1032 154.348L87.773 147.435C86.9598 146.89 87.3316 145.623 88.3099 145.604L108.696 145.211C109.674 145.192 110.095 146.444 109.303 147.02L99.2472 154.326Z" fill="#F4B1C1"/>
<path fill-rule="evenodd" clip-rule="evenodd" d="M106.282 129.28C106.824 128.852 106.916 128.066 106.488 127.525C106.06 126.983 105.5 127.001 105.5 127.001H99.7188H95.7188H90.5C90.5 127.001 89.7544 126.961 89.3035 127.483C88.8526 128.006 88.9108 128.796 89.4336 129.246L94.8542 133.922C95.3797 134.375 95.9897 134.679 96.6287 134.834L96.6287 139.789C96.6287 140.48 97.1883 141.039 97.8787 141.039C98.569 141.039 99.1287 140.48 99.1287 139.789V134.681C99.5303 134.53 99.9143 134.315 100.266 134.037L106.282 129.28Z" fill="#595959"/>
</svg>
