<svg width="163" height="164" viewBox="0 0 163 164" fill="none" xmlns="http://www.w3.org/2000/svg">
<path fill-rule="evenodd" clip-rule="evenodd" d="M149.052 5.81386C145.67 5.85243 141.416 7.31538 137.387 9.25328L145.31 18.0918C147.459 14.0123 149.087 9.45553 149.052 5.81386Z" fill="#E74325"/>
<path fill-rule="evenodd" clip-rule="evenodd" d="M138.74 27.2428L127.774 15.0086C130.241 13.1739 133.721 11.0168 137.387 9.25316L145.31 18.0917C143.27 21.9635 140.76 25.4054 138.756 27.2271L138.74 27.2428Z" fill="#FA8904"/>
<path fill-rule="evenodd" clip-rule="evenodd" d="M127.774 15.0086C126.942 15.6278 126.224 16.2103 125.654 16.7285L119.436 22.1861L130.889 34.9633L138.74 27.2428L127.774 15.0086Z" fill="#F9E109"/>
<path fill-rule="evenodd" clip-rule="evenodd" d="M111.167 29.4424L119.436 22.1862L130.889 34.9634L123.037 42.6839L111.167 29.4424Z" fill="#43B155"/>
<path fill-rule="evenodd" clip-rule="evenodd" d="M102.899 36.6985L111.167 29.4423L123.037 42.6838L115.185 50.4043L102.899 36.6985Z" fill="#0C38D5"/>
<path fill-rule="evenodd" clip-rule="evenodd" d="M7.9551 5.89436C11.3379 5.88224 15.613 7.28129 19.6701 9.1586L11.8809 18.1149C9.67064 14.068 7.97476 9.53615 7.9551 5.89436Z" fill="#E74325"/>
<path fill-rule="evenodd" clip-rule="evenodd" d="M18.5868 27.1665L29.3685 14.7693C26.8742 12.9718 23.3624 10.8671 19.6701 9.15857L11.8809 18.1148C13.9785 21.9556 16.5395 25.3595 18.5706 27.151L18.5868 27.1665Z" fill="#FA8904"/>
<path fill-rule="evenodd" clip-rule="evenodd" d="M29.3685 14.7694C30.2102 15.376 30.936 15.9476 31.5138 16.4573L37.8137 21.8211L26.5535 34.7685L18.5868 27.1665L29.3685 14.7694Z" fill="#F9E109"/>
<path fill-rule="evenodd" clip-rule="evenodd" d="M46.1896 28.9526L37.8137 21.8212L26.5535 34.7685L34.5202 42.3705L46.1896 28.9526Z" fill="#43B155"/>
<path fill-rule="evenodd" clip-rule="evenodd" d="M54.5655 36.084L46.1896 28.9526L34.5202 42.3705L42.4869 49.9725L54.5655 36.084Z" fill="#0C38D5"/>
<path fill-rule="evenodd" clip-rule="evenodd" d="M54.5656 36.0841L77.7798 55.8491C78.3528 56.3545 78.8555 56.9114 79.287 57.507C79.5059 57.2656 79.7382 57.0326 79.9839 56.8092L102.899 36.6986L115.185 50.4044L93.3224 71.901C91.1053 73.9165 88.2477 74.746 85.5074 74.4307L71.2087 73.6344C68.8886 73.6271 66.5587 72.8058 64.669 71.139L42.4869 49.9725L54.5656 36.0841Z" fill="#7D2F99"/>
<path fill-rule="evenodd" clip-rule="evenodd" d="M152.65 61.9037C160.013 57.1642 155.954 45.6785 147.426 47.125L102.502 54.7456C95.8489 50.7879 88.0926 48.5835 79.7019 48.5835C70.4524 48.5835 61.9739 51.2623 54.8945 56.0154L11.7956 50.3145C3.22013 49.1802 -0.449494 60.7891 7.07156 65.259L36.0964 82.5088C34.6865 87.4323 33.9303 92.749 33.9303 98.3601C33.9303 122.367 46.9373 142.52 67.0132 149.894L68.7617 157.462L74.6966 152.238L78.3707 163.861L83.6585 152.169L89.0753 157.306L91.2388 149.646C110.946 141.926 125.474 122.585 125.474 98.3601C125.474 92.1977 124.561 86.3905 122.873 81.0692L152.65 61.9037Z" fill="#846820"/>
<path fill-rule="evenodd" clip-rule="evenodd" d="M106.638 96.8463C106.498 101.464 102.711 105.164 98.0594 105.164C93.3196 105.164 89.4772 101.322 89.4772 96.5822C89.4772 91.8424 93.3196 88 98.0594 88C101.946 88 105.229 90.5832 106.285 94.1263C106.94 93.6455 107.723 92.866 108.296 91.5342C108.569 90.9 108.796 90.5342 109.452 90.0342C110.087 90.3069 109.725 92.4 109.452 93.0342C109.422 93.1056 109.392 93.1755 109.362 93.244C108.547 95.1428 108.196 95.96 106.864 96.7236C106.789 96.7665 106.714 96.8073 106.638 96.8463Z" fill="black"/>
<path fill-rule="evenodd" clip-rule="evenodd" d="M61.5864 105.164C66.3262 105.164 70.1686 101.322 70.1686 96.5822C70.1686 91.8424 66.3262 88 61.5864 88C57.7359 88 54.4776 90.5358 53.3906 94.0285C52.7641 93.5416 52.0444 92.7793 51.5091 91.5342C51.2364 90.9 51.0091 90.5342 50.3527 90.0342C49.7184 90.3069 50.08 92.4 50.3527 93.0342C50.3834 93.1056 50.4134 93.1755 50.4428 93.244C51.2579 95.1428 51.6087 95.96 52.9413 96.7236C52.9628 96.736 52.9844 96.7481 53.006 96.7602C53.1008 101.418 56.9061 105.164 61.5864 105.164Z" fill="black"/>
<path d="M100.92 92.5772C100.92 93.8411 99.8955 94.8657 98.6316 94.8657C97.3676 94.8657 96.343 93.8411 96.343 92.5772C96.343 91.3132 97.3676 90.2886 98.6316 90.2886C99.8955 90.2886 100.92 91.3132 100.92 92.5772Z" fill="white"/>
<path d="M63.3029 92.5772C63.3029 93.8411 62.2783 94.8657 61.0143 94.8657C59.7504 94.8657 58.7257 93.8411 58.7257 92.5772C58.7257 91.3132 59.7504 90.2886 61.0143 90.2886C62.2783 90.2886 63.3029 91.3132 63.3029 92.5772Z" fill="white"/>
<path fill-rule="evenodd" clip-rule="evenodd" d="M85.7476 90.9027C85.7408 90.9131 85.7258 90.9362 85.709 90.9637C85.6855 91.0022 85.6568 91.0515 85.6246 91.1118C85.5603 91.2323 85.4833 91.3946 85.4057 91.6011C85.3403 91.7751 85.2748 91.9795 85.2161 92.2156C83.4252 91.4674 81.8413 91.0251 80.2176 91.001C78.4756 90.9752 76.7794 91.4309 74.8146 92.3449C74.7486 92.0533 74.6714 91.8061 74.5943 91.6011C74.5167 91.3946 74.4397 91.2323 74.3754 91.1118C74.3432 91.0515 74.3145 91.0022 74.291 90.9637C74.2742 90.9362 74.2592 90.9131 74.2524 90.9027C73.243 89.2751 71.2578 88.2928 69.6716 87.7227C68.1498 87.1756 66.7974 86.9387 66.4979 86.8927C64.8957 86.5599 62.8336 86.342 61.193 86.207C59.6618 86.081 58.4223 86.0211 58.1991 86.0136C56.6306 85.9683 54.7449 86.0437 53.2654 86.1283C52.5218 86.1708 51.8734 86.216 51.4088 86.2506C51.1763 86.268 50.9898 86.2826 50.8603 86.293L50.7115 86.3049L50.7033 86.3056H50.6961L50.6467 86.31C46.9969 86.6337 44.786 87.7146 43.4712 88.8176C42.2816 89.8156 41.8816 90.7845 41.7825 91.0991C41.142 92.6722 40.9958 94.3641 41.0001 95.6393C41.0023 96.2885 41.0436 96.844 41.0845 97.2414C41.105 97.4404 41.1255 97.6001 41.1409 97.7122C41.1478 97.7618 41.1536 97.8017 41.1578 97.8306V97.8594L41.1753 97.9402C42.4323 103.742 44.3632 105.557 45.0518 106.014C46.6603 107.456 49.0987 108.173 51.0325 108.542C52.9628 108.91 54.5881 108.967 54.8572 108.971C55.3322 108.985 55.8267 109 56.324 109C59.4017 109 61.8513 108.6 63.5475 108.19C64.3954 107.986 65.0557 107.779 65.5131 107.618C65.7417 107.537 65.9207 107.468 66.0484 107.416C66.1118 107.39 66.1649 107.367 66.2065 107.348C66.2215 107.341 66.2376 107.334 66.2536 107.326C71.9256 105.057 73.5459 100.386 73.4942 100.477L73.5192 100.433L73.5384 100.386C74.5724 97.8967 74.9439 95.9517 74.994 94.4803C77.1192 93.4107 78.6823 92.9785 80.188 93.0008C81.6019 93.0218 83.0648 93.4442 85.0014 94.3006C85.0266 95.7922 85.3849 97.794 86.4616 100.386L86.4808 100.433L86.5058 100.477C86.4541 100.386 88.0744 105.057 93.7464 107.326C93.7624 107.334 93.7785 107.341 93.7935 107.348C93.8351 107.367 93.8882 107.39 93.9516 107.416C94.0793 107.468 94.2583 107.537 94.4869 107.618C94.9443 107.779 95.6046 107.986 96.4525 108.19C98.1487 108.6 100.598 109 103.676 109C104.173 109 104.668 108.985 105.143 108.971C105.412 108.967 107.037 108.91 108.968 108.542C110.901 108.173 113.34 107.456 114.948 106.014C115.637 105.557 117.568 103.742 118.825 97.9402L118.842 97.8594V97.8306C118.846 97.8017 118.852 97.7618 118.859 97.7122C118.875 97.6001 118.895 97.4404 118.915 97.2414C118.956 96.844 118.998 96.2885 119 95.6393C119.004 94.3641 118.858 92.6722 118.217 91.0991C118.118 90.7845 117.718 89.8156 116.529 88.8176C115.214 87.7146 113.003 86.6337 109.353 86.31L109.341 86.309L109.304 86.3056H109.297L109.288 86.3049L109.14 86.293C109.01 86.2826 108.824 86.268 108.591 86.2506C108.127 86.216 107.478 86.1708 106.735 86.1283C105.255 86.0437 103.369 85.9683 101.801 86.0136C101.578 86.0211 100.338 86.081 98.807 86.207C97.1664 86.342 95.1043 86.5599 93.5021 86.8927C93.2026 86.9387 91.8502 87.1756 90.3284 87.7227C88.7422 88.2928 86.757 89.2751 85.7476 90.9027ZM118.836 97.8706C118.833 97.8929 118.834 97.8879 118.837 97.8691L118.836 97.8706ZM87.3296 93.5268C87.3816 92.9275 87.5021 92.5047 87.5995 92.246C87.6483 92.1161 87.6917 92.0267 87.7184 91.9763C87.7314 91.9517 87.7404 91.9364 87.7442 91.9301L87.7489 91.9232L87.7595 91.9061C88.3913 90.8851 89.8187 90.1178 91.291 89.5956C92.0001 89.344 92.6672 89.1675 93.1601 89.0541C93.4058 88.9976 93.6057 88.9573 93.7428 88.9317C93.7941 88.922 93.836 88.9146 93.8675 88.9092H93.898L94.0113 88.8853C95.4673 88.5787 97.4183 88.3673 99.0433 88.2328C100.46 88.1154 101.563 88.0615 101.813 88.0493L101.813 88.0492L101.814 88.0492C101.852 88.0474 101.87 88.0465 101.866 88.0465C102.025 88.0465 102.186 88.0427 102.336 88.0393L102.353 88.0389C102.512 88.0352 102.662 88.0319 102.813 88.0319C104.225 88.0319 105.793 88.1035 107.02 88.1779C107.632 88.2149 108.154 88.2524 108.524 88.2814C108.698 88.2949 108.836 88.3065 108.934 88.3152L108.941 88.3184L109.121 88.3345C112.285 88.6173 114.006 89.5353 114.923 90.3036C115.388 90.6928 115.665 91.0584 115.821 91.3149C115.895 91.435 115.942 91.5309 115.969 91.5934V91.6146L116.029 91.7595C116.562 93.0412 116.704 94.4902 116.702 95.6556C116.701 96.2319 116.665 96.725 116.629 97.0742C116.611 97.2485 116.594 97.3865 116.581 97.4808C116.574 97.5278 116.569 97.5644 116.565 97.5899L116.562 97.612C115.914 100.59 115.096 102.335 114.474 103.314C114.163 103.805 113.901 104.103 113.734 104.268C113.646 104.355 113.606 104.391 113.582 104.41L113.488 104.451L113.368 104.563C112.242 105.609 110.271 106.232 108.409 106.578C106.7 106.895 105.275 106.946 105.132 106.952L105.124 106.952C105.12 106.952 105.119 106.952 105.12 106.952H105.103L105.086 106.953C104.602 106.967 104.137 106.981 103.693 106.981C100.843 106.981 98.6019 106.614 97.0808 106.25C96.3202 106.067 95.7396 105.886 95.3534 105.752C95.1602 105.686 95.0157 105.63 94.9216 105.593C94.8746 105.574 94.8401 105.56 94.8184 105.551C94.799 105.543 94.788 105.538 94.788 105.538L94.77 105.53L94.7518 105.523C89.9849 103.631 88.6424 99.7855 88.6263 99.7394L88.6214 99.7265L88.6163 99.714C87.3504 96.6798 87.2407 94.6539 87.3296 93.5268ZM50.6588 86.309L50.672 86.308C50.6622 86.3088 50.6583 86.309 50.6588 86.309ZM41.1637 97.8706C41.1668 97.8929 41.1656 97.8879 41.1634 97.8691L41.1637 97.8706ZM72.6704 93.5268C72.6184 92.9275 72.4979 92.5047 72.4005 92.246C72.3516 92.1161 72.3083 92.0267 72.2816 91.9763C72.2686 91.9517 72.2596 91.9364 72.2558 91.9301L72.2511 91.9232L72.2405 91.9061C71.6087 90.8851 70.1813 90.1178 68.709 89.5956C67.9999 89.344 67.3328 89.1675 66.8399 89.0541C66.5942 88.9976 66.3943 88.9573 66.2572 88.9317C66.2059 88.922 66.164 88.9146 66.1325 88.9092H66.102L65.9887 88.8853C64.5327 88.5787 62.5817 88.3673 60.9567 88.2328C59.5396 88.1154 58.4368 88.0615 58.1866 88.0493C58.1484 88.0474 58.13 88.0465 58.1335 88.0465C57.9748 88.0465 57.8138 88.0427 57.6641 88.0393L57.6468 88.0389C57.4879 88.0352 57.3384 88.0319 57.1872 88.0319C55.7753 88.0319 54.2068 88.1035 52.9801 88.1779C52.3685 88.2149 51.8458 88.2524 51.4755 88.2814C51.3023 88.2949 51.1639 88.3065 51.0662 88.3152L51.059 88.3184L50.8788 88.3345C47.715 88.6173 45.9941 89.5353 45.0766 90.3036C44.6119 90.6928 44.3352 91.0584 44.1785 91.3149C44.1051 91.435 44.0582 91.5309 44.0309 91.5934V91.6146L43.9707 91.7595C43.4381 93.0412 43.2963 94.4902 43.2983 95.6556C43.2993 96.2319 43.3353 96.725 43.3709 97.0742C43.3887 97.2485 43.4063 97.3865 43.4193 97.4808C43.4257 97.5278 43.4311 97.5644 43.435 97.5899L43.4383 97.612C44.0865 100.59 44.9042 102.335 45.526 103.314C45.8372 103.805 46.099 104.103 46.2656 104.268C46.3535 104.355 46.3936 104.391 46.4182 104.41L46.5124 104.451L46.6321 104.563C47.7581 105.609 49.7286 106.232 51.591 106.578C53.2997 106.895 54.7244 106.946 54.8682 106.952H54.8683C54.8778 106.952 54.8817 106.952 54.8796 106.952H54.8966L54.9137 106.953C55.3984 106.967 55.8625 106.981 56.3074 106.981C59.1571 106.981 61.3981 106.614 62.9192 106.25C63.6798 106.067 64.2604 105.886 64.6466 105.752C64.8398 105.686 64.9843 105.63 65.0784 105.593C65.1254 105.574 65.1599 105.56 65.1816 105.551C65.201 105.543 65.2106 105.539 65.212 105.538L65.23 105.53L65.2482 105.523C70.0151 103.631 71.3576 99.7855 71.3737 99.7394L71.3786 99.7265L71.3837 99.714C72.6496 96.6798 72.7593 94.6539 72.6704 93.5268Z" fill="#C8C7C7"/>
<path fill-rule="evenodd" clip-rule="evenodd" d="M88.2824 111.28C88.824 110.852 88.9159 110.066 88.4877 109.525C88.0596 108.983 87.5 109.001 87.5 109.001H81.7188H77.7188H72.5C72.5 109.001 71.7544 108.961 71.3035 109.483C70.8526 110.006 70.9108 110.796 71.4336 111.246L76.8542 115.922C77.3797 116.375 77.9897 116.679 78.6287 116.834L78.6287 121.789C78.6287 122.48 79.1883 123.039 79.8787 123.039C80.569 123.039 81.1287 122.48 81.1287 121.789V116.681C81.5303 116.53 81.9143 116.315 82.2658 116.037L88.2824 111.28Z" fill="#FEFCFC"/>
<path d="M81.2471 135.326C80.9081 135.572 80.4514 135.581 80.1032 135.348L69.773 128.435C68.9598 127.89 69.3316 126.623 70.3099 126.604L90.6961 126.211C91.6745 126.192 92.0948 127.444 91.3032 128.02L81.2471 135.326Z" fill="#F4B1C1"/>
</svg>
